# AST/ASF file generated using VICON BodyLanguage
# -----------------------------------------------
:version 1.10
:name VICON
:units
  mass 1.0
  length 0.45
  angle deg
:documentation
   .ast/.asf automatically generated from VICON data using
   VICON BodyBuilder and BodyLanguage model FoxedUp or BRILLIANT.MOD
:root
   order TX TY TZ RX RY RZ
   axis XYZ
   position 0 0 0  
   orientation 0 0 0 
:bonedata
  begin
     id 1 
     name lhipjoint
     direction 0.630082 -0.636569 0.44472 
     length 2.82754 
     axis 0 0 0  XYZ
  end
  begin
     id 2 
     name lfemur
     direction 0.34202 -0.939693 0  
     length 7.26371  
     axis 0 0 20  XYZ
    dof rx ry rz
    limits (-160.0 20.0)
           (-70.0 70.0)
           (-60.0 70.0)
  end
  begin
     id 3 
     name ltibia
     direction 0.34202 -0.939693 0   
     length 7.88616   
     axis 0 0 20   XYZ
    dof rx
    limits (-10.0 170.0)
  end
  begin
     id 4 
     name lfoot
     direction 0.0603448 -0.165796 0.984312   
     length 1.77861   
     axis -90 7.62852e-016 20   XYZ
    dof rx rz
    limits (-45.0 90.0)
           (-70.0 20.0)
  end
  begin
     id 5 
     name ltoes
     direction 1.53577e-011 -4.21876e-011 1   
     length 0.902235   
     axis -90 7.62852e-016 20   XYZ
    dof rx
    limits (-90.0 20.0)
  end
  begin
     id 6 
     name rhipjoint
     direction -0.656778 -0.61817 0.431866   
     length 2.9117  
     axis 0 0 0  XYZ 
  end
  begin
     id 7 
     name rfemur
     direction -0.34202 -0.939693 0   
     length 6.81603   
     axis 0 0 -20   XYZ
    dof rx ry rz
    limits (-160.0 20.0)
           (-70.0 70.0)
           (-70.0 60.0)
  end
  begin
     id 8 
     name rtibia
     direction -0.34202 -0.939693 0   
     length 8.05997   
     axis 0 0 -20   XYZ
    dof rx
    limits (-10.0 170.0)
 end
 begin
     id 9 
     name rfoot
     direction -0.0862404 -0.236944 0.967688   
     length 1.84899  
     axis -90 -7.62852e-016 -20   XYZ
    dof rx rz
    limits (-45.0 90.0)
           (-20.0 70.0)
  end
  begin
     id 10 
     name rtoes
     direction -1.53561e-011 -4.21798e-011 1   
     length 0.931579   
     axis -90 -7.62852e-016 -20   XYZ
    dof rx
    limits (-90.0 20.0)
  end
  begin
     id 11 
     name lowerback
     direction -0.0110203 0.991769 -0.127564   
     length 2.05686   
     axis 0 0 0   XYZ
    dof rx ry rz
    limits (-20.0 45.0)
           (-30.0 30.0)
           (-30.0 30.0)
  end
  begin
     id 12 
     name upperback
     direction 0.0109719 0.99993 -0.00432479   
     length 2.06234   
     axis 0 0 0   XYZ
    dof rx ry rz
    limits (-20.0 45.0)
           (-30.0 30.0)
           (-30.0 30.0)
  end
  begin
     id 13 
     name thorax
     direction 0.0173308 0.998351 0.0547306   
     length 2.09856   
     axis 0 0 0   XYZ
    dof rx ry rz
    limits (-20.0 45.0)
           (-30.0 30.0)
           (-30.0 30.0)
  end
  begin
     id 14 
     name lowerneck
     direction -0.0311736 0.989033 0.144366   
     length 1.98151   
     axis 0 0 0   XYZ
    dof rx ry rz
    limits (-20.0 45.0)
           (-30.0 30.0)
           (-30.0 30.0)
  end
  begin
     id 15 
     name upperneck
     direction 0.0421057 0.975772 -0.214698   
     length 2.01457   
     axis 0 0 0   XYZ
    dof rx ry rz
    limits (-20.0 45.0)
           (-30.0 30.0)
           (-30.0 30.0)
  end
  begin
     id 16
     name head
     direction 0.0136911 0.995958 -0.0887718  
     length 2.03562  
     axis 0 0 0   XYZ
    dof rx ry rz
    limits (-20.0 45.0)
           (-30.0 30.0)
           (-30.0 30.0)
  end
  begin
     id 17 
     name lclavicle
     direction 0.915335 0.396201 0.0720134  
     length 4.16217  
     axis 0 0 0   XYZ
    dof ry rz
    limits (-20.0 10.0)
           (0.0 20.0)
  end
  begin
     id 18 
     name lhumerus
     direction 1 -4.48965e-011 6.383e-018   
     length 4.93042   
     axis -180 -30 -90   XYZ
    dof rx ry rz
    limits (-60.0 90.0)
           (-90.0 90.0)
           (-90.0 90.0)
  end
  begin
     id 19
     name lradius
     direction 1 -4.48972e-011 8.8689e-027   
     length 3.68177   
     axis -180 -30 -90   XYZ
    dof rx
    limits (-10.0 170.0)
  end
  begin
     id 20
     name lwrist
     direction 1 -4.48953e-011 1.17971e-026   
     length 1.84089   
     axis -7.69454e-015 90 90   XYZ
    dof ry
    limits (-180.0 0.0)
 end
  begin
     id 21 
     name lhand
     direction 1 -4.49027e-011 2.35802e-026   
     length 0.721479   
     axis -1.50533e-014 90 90   XYZ
    dof rx rz
    limits (-90.0 90.0)
           (-45.0 45.0)
  end
  begin
     id 22 
     name lfingers
     direction 1 -4.48915e-011 4.72027e-026   
     length 0.581675   
     axis -3.01059e-014 90 90   XYZ
    dof rx
    limits (0.0 90.0)
  end
  begin
     id 23
     name lthumb
     direction 0.707107 -6.34948e-011 0.707107   
     length 0.835172   
     axis -90 45 -5.12164e-014   XYZ
    dof rx rz
    limits (-45.0 45.0)
           (-45.0 45.0)
  end
  begin
     id 24 
     name rclavicle
     direction -0.882781 0.469197 0.0234974   
     length 3.95647  
     axis 0 0 0   XYZ 
    dof ry rz
    limits (-10.0 20.0)
           (-20.0 0.0)
  end
  begin
     id 25 
     name rhumerus
     direction -1 -4.48965e-011 -1.54906e-018  
     length 5.07905   
     axis -180 30 90   XYZ
    dof rx ry rz
    limits (-90.0 60.0)
           (-90.0 90.0)
           (-90.0 90.0)
  end
  begin
     id 26 
     name rradius
     direction -1 -4.48972e-011 5.47489e-027   
     length 3.54394   
     axis -180 30 90   XYZ
    dof rx
    limits (-10.0 170.0)
  end
  begin
     id 27 
     name rwrist
     direction -1 -4.48955e-011 1.17969e-026   
     length 1.77197   
     axis -7.69454e-015 -90 -90   XYZ
    dof ry
    limits (-180.0 0.0)
  end
  begin
     id 28
     name rhand
     direction -1 -4.48982e-011 2.35888e-026   
     length 0.681156   
     axis -1.50533e-014 -90 -90   XYZ
    dof rx rz
    limits (-90.0 90.0)
           (-45.0 45.0)
  end
  begin
     id 29
     name rfingers
     direction -1 -4.48955e-011 4.71877e-026   
     length 0.549165   
     axis -3.01059e-014 -90 -90   XYZ
    dof rx
    limits (0.0 90.0)
  end
  begin
     id 30
     name rthumb
     direction -0.707107 -6.3491e-011 0.707107   
     length 0.788495   
     axis -90 -45 5.12164e-014   XYZ
    dof rx rz
    limits (-45.0 45.0)
           (-45.0 45.0)
  end
:hierarchy
  begin
    root lhipjoint rhipjoint lowerback
    lhipjoint lfemur
    lfemur ltibia
    ltibia lfoot
    lfoot ltoes
    rhipjoint rfemur
    rfemur rtibia
    rtibia rfoot
    rfoot rtoes
    lowerback upperback
    upperback thorax
    thorax lowerneck lclavicle rclavicle
    lowerneck upperneck
    upperneck head
    lclavicle lhumerus
    lhumerus lradius
    lradius lwrist
    lwrist lhand lthumb
    lhand lfingers
    rclavicle rhumerus
    rhumerus rradius
    rradius rwrist
    rwrist rhand rthumb
    rhand rfingers
  end

#!OML:ASF H:\Bending\Project 1\Capture day 1\Session 1\Subject.ASF
:FULLY-SPECIFIED
:DEGREES
289
root -10.004 18.2386 -16.753 -132.545 88.9403 -144.109
lowerback 10.1669 -0.243542 0.455395
upperback -1.03279 -0.160683 1.39667
thorax -6.79797 -0.062344 1.23658
lowerneck -25.4207 -3.61736 -5.51376
upperneck 26.3786 -3.79463 3.34649
head 13.2958 -1.6797 1.54428
rclavicle -4.77083e-015 -3.02153e-014
rhumerus 24.4747 6.49622 -81.2132
rradius 50.8191
rwrist -5.63424
rhand -25.6068 -30.5021
rfingers 7.12502
rthumb 0.925509 -60.4798
lclavicle -4.77083e-015 -3.02153e-014
lhumerus 28.4342 -18.1069 74.935
lradius 45.5225
lwrist 47.5779
lhand -25.5343 10.132
lfingers 7.12502
lthumb 0.995506 40.1094
rfemur -1.90115 -4.69282 15.622
rtibia 0
rfoot -7.48294 -18.3647
rtoes 1.0741
lfemur -17.7828 -7.30932 -13.6999
ltibia 23.6161
lfoot -18.3199 13.6363
ltoes -31.8479
290
root -9.98468 18.2366 -16.749 -136.737 88.8552 -148.242
lowerback 10.0748 -0.160459 0.543584
upperback -1.10132 -0.0453438 1.32464
thorax -6.82039 -0.0110196 1.09273
lowerneck -25.3326 -3.78669 -5.62796
upperneck 26.614 -4.03123 3.46704
head 13.3951 -1.77456 1.56975
rclavicle -3.97569e-016 3.97569e-015
rhumerus 21.4761 5.8091 -80.6541
rradius 53.9167
rwrist -4.65539
rhand -25.3667 -30.1211
rfingers 7.12502
rthumb 1.15743 -60.0977
lclavicle -3.97569e-016 3.97569e-015
lhumerus 25.6738 -19.0859 74.8465
lradius 48.5335
lwrist 47.1677
lhand -26.4632 9.77968
lfingers 7.12502
lthumb 0.0983379 39.7594
rfemur -1.73115 -4.80436 15.6287
rtibia -1.59028e-015
rfoot -7.56588 -18.4164
rtoes 0.619841
lfemur -17.6378 -7.43848 -13.7108
ltibia 23.5642
lfoot -18.3986 13.6339
ltoes -31.5443
291
root -9.96195 18.2351 -16.7436 -140.747 88.7564 -152.181
lowerback 9.96975 -0.0729798 0.611049
upperback -1.16901 0.073562 1.25952
thorax -6.83394 0.0429133 0.967412
lowerneck -25.2226 -3.96929 -5.75106
upperneck 26.8326 -4.28055 3.57366
head 13.4847 -1.87786 1.58879
rclavicle -1.39149e-015 4.77083e-015
rhumerus 18.1973 5.17219 -80.0291
rradius 56.9286
rwrist -3.47614
rhand -25.1556 -29.8413
rfingers 7.12502
rthumb 1.36127 -59.8167
lclavicle -1.39149e-015 4.77083e-015
lhumerus 22.5683 -20.1481 74.9674
lradius 51.6168
lwrist 46.4861
lhand -27.1742 9.39677
lfingers 7.12502
lthumb -0.588337 39.3757
rfemur -1.53262 -4.92713 15.6332
rtibia -9.54166e-015
rfoot -7.6564 -18.4615
rtoes -0.0197175
lfemur -17.4562 -7.59383 -13.7222
ltibia 23.4897
lfoot -18.5217 13.6208
ltoes -31.0792
292
root -9.93647 18.2337 -16.7372 -144.256 88.6461 -155.61
lowerback 9.85967 0.00139426 0.642176
upperback -1.24206 0.172303 1.21845
thorax -6.8497 0.0888865 0.891273
lowerneck -25.0757 -4.13144 -5.87086
upperneck 27.0215 -4.4963 3.65564
head 13.5528 -1.97019 1.60398
rclavicle 2.28602e-015 1.98785e-014
rhumerus 14.6302 4.70123 -79.3372
rradius 59.8189
rwrist -2.33405
rhand -25.0083 -29.6617
rfingers 7.12502
rthumb 1.50353 -59.6362
lclavicle 2.28602e-015 1.98785e-014
lhumerus 19.1083 -21.2224 75.3207
lradius 54.6514
lwrist 45.4338
lhand -27.5941 9.00923
lfingers 7.12502
lthumb -0.993926 38.9867
rfemur -1.31379 -5.05592 15.6366
rtibia 7.95139e-015
rfoot -7.77913 -18.4837
rtoes -0.532619
lfemur -17.2519 -7.74951 -13.7304
ltibia 23.4073
lfoot -18.661 13.5991
ltoes -30.6645
293
root -9.90883 18.2314 -16.7299 -147.119 88.5262 -158.386
lowerback 9.75154 0.0523246 0.632978
upperback -1.32352 0.237352 1.2083
thorax -6.87522 0.120648 0.875835
lowerneck -24.8911 -4.25135 -5.98093
upperneck 27.1755 -4.65217 3.72086
head 13.5948 -2.03856 1.6225
rclavicle 6.95746e-016 -2.10712e-014
rhumerus 10.786 4.46972 -78.6037
rradius 62.5484
rwrist -1.48055
rhand -25.8042 -26.9433
rfingers 7.12502
rthumb 0.734898 -56.9218
lclavicle 6.95746e-016 -2.10712e-014
lhumerus 15.3221 -22.2809 75.8866
lradius 57.5115
lwrist 44.0292
lhand -27.7665 8.62689
lfingers 7.12502
lthumb -1.16043 38.6035
rfemur -1.08166 -5.1874 15.6419
rtibia 1.43125e-014
rfoot -7.94686 -18.4752
rtoes -0.682296
lfemur -17.0391 -7.88632 -13.7314
ltibia 23.3331
lfoot -18.7865 13.5729
ltoes -30.483
294
root -9.87943 18.2276 -16.7219 -149.301 88.3992 -160.478
lowerback 9.64846 0.0799546 0.589112
upperback -1.41265 0.269435 1.22524
thorax -6.91172 0.138319 0.913658
lowerneck -24.6816 -4.32595 -6.08189
upperneck 27.2986 -4.74894 3.78835
head 13.6152 -2.0806 1.65186
rclavicle 1.49089e-015 1.98785e-014
rhumerus 6.6981 4.47966 -77.8856
rradius 65.0529
rwrist -1.06744
rhand -24.8609 -19.743
rfingers 7.12502
rthumb 1.64592 -49.7164
lclavicle 1.49089e-015 1.98785e-014
lhumerus 11.2661 -23.3286 76.6343
lradius 60.0893
lwrist 42.3888
lhand -27.8374 8.23262
lfingers 7.12502
lthumb -1.22886 38.2088
rfemur -0.840779 -5.31851 15.6541
rtibia -3.18055e-015
rfoot -8.15284 -18.4394
rtoes -0.403709
lfemur -16.8264 -8.00301 -13.7216
ltibia 23.2772
lfoot -18.8809 13.5513
ltoes -30.5935
295
root -9.84832 18.2222 -16.7133 -150.869 88.2706 -161.954
lowerback 9.5474 0.0930206 0.519598
upperback -1.50587 0.280467 1.2585
thorax -6.95374 0.147199 0.986405
lowerneck -24.4696 -4.36864 -6.17946
upperneck 27.4019 -4.80871 3.87711
head 13.6251 -2.1035 1.69621
rclavicle 4.27387e-015 3.97569e-015
rhumerus 2.41672 4.65132 -77.2617
rradius 67.2391
rwrist -1.06343
rhand -24.8449 -17.1836
rfingers 7.12502
rthumb 1.66137 -47.1569
lclavicle 4.27387e-015 3.97569e-015
lhumerus 7.00441 -24.3685 77.5521
lradius 62.3101
lwrist 40.6692
lhand -27.9959 7.7951
lfingers 7.12502
lthumb -1.38196 37.7704
rfemur -0.593861 -5.44473 15.6769
rtibia -4.77083e-015
rfoot -8.37383 -18.3889
rtoes 0.183128
lfemur -16.6152 -8.11658 -13.6995
ltibia 23.2412
lfoot -18.9472 13.5474
ltoes -30.9089
296
root -9.81525 18.2157 -16.7041 -151.94 88.1478 -162.934
lowerback 9.44037 0.102946 0.429787
upperback -1.59843 0.285449 1.29804
thorax -6.99173 0.154224 1.07812
lowerneck -24.2802 -4.4003 -6.27957
upperneck 27.4989 -4.86001 3.99334
head 13.6375 -2.11904 1.75335
rclavicle -1.09332e-015 3.18055e-015
rhumerus -2.00348 4.84279 -76.8047
rradius 69.0021
rwrist -1.25274
rhand -24.8974 -18.1701
rfingers 7.12502
rthumb 1.61068 -48.1437
lclavicle -1.09332e-015 3.18055e-015
lhumerus 2.58804 -25.3628 78.6613
lradius 64.1387
lwrist 39.0021
lhand -28.3924 7.28795
lfingers 7.12502
lthumb -1.76492 37.2604
rfemur -0.342322 -5.56055 15.7115
rtibia 3.18055e-015
rfoot -8.58191 -18.3404
rtoes 0.839879
lfemur -16.402 -8.2533 -13.6662
ltibia 23.2191
lfoot -19.0041 13.5757
ltoes -31.2649
297
root -9.77995 18.2086 -16.6946 -152.656 88.0371 -163.565
lowerback 9.32721 0.118366 0.309594
upperback -1.69063 0.29492 1.34588
thorax -7.02613 0.165046 1.19502
lowerneck -24.1324 -4.43953 -6.38957
upperneck 27.6038 -4.9217 4.12445
head 13.6633 -2.13773 1.81583
rclavicle -1.19271e-015 7.15625e-015
rhumerus -6.5183 4.90058 -76.5398
rradius 70.2563
rwrist -1.33256
rhand -24.8453 -19.092
rfingers 7.12502
rthumb 1.66097 -49.0652
lclavicle -1.19271e-015 7.15625e-015
lhumerus -1.96177 -26.206 80.0149
lradius 65.576
lwrist 37.4529
lhand -29.0783 6.69955
lfingers 7.12502
lthumb -2.42734 36.6655
rfemur -0.0862396 -5.66169 15.7549
rtibia 3.18055e-015
rfoot -8.75782 -18.3068
rtoes 1.32374
lfemur -16.1818 -8.43386 -13.6262
ltibia 23.2034
lfoot -19.0752 13.6454
ltoes -31.5206
298
root -9.74242 18.2014 -16.6849 -153.168 87.9411 -163.995
lowerback 9.19367 0.137097 0.171038
upperback -1.7716 0.306523 1.39315
thorax -7.0371 0.177751 1.32127
lowerneck -24.0345 -4.49387 -6.5039
upperneck 27.7112 -5.00415 4.26285
head 13.7025 -2.16458 1.87753
rclavicle 5.76476e-015 -1.47101e-014
rhumerus -11.077 4.69388 -76.4594
rradius 70.9636
rwrist -1.06504
rhand -24.2698 -19.8492
rfingers 7.12502
rthumb 2.21681 -49.8174
lclavicle 5.76476e-015 -1.47101e-014
lhumerus -6.61174 -26.7501 81.6115
lradius 66.6527
lwrist 36.0285
lhand -29.9893 6.03372
lfingers 7.12502
lthumb -3.30712 35.9878
rfemur 0.177071 -5.74773 15.8006
rtibia 6.36111e-015
rfoot -8.9013 -18.2919
rtoes 1.50975
lfemur -15.9503 -8.66119 -13.5858
ltibia 23.1898
lfoot -19.1752 13.7546
ltoes -31.6421
299
root -9.7032 18.194 -16.6756 -153.652 87.8569 -164.39
lowerback 9.03696 0.151983 0.0261946
upperback -1.83108 0.311648 1.43403
thorax -7.0118 0.187326 1.44518
lowerneck -23.9805 -4.56213 -6.61687
upperneck 27.8049 -5.10681 4.40402
head 13.7468 -2.19963 1.93561
rclavicle -3.8763e-015 1.94809e-014
rhumerus -15.6374 4.17285 -76.5053
rradius 71.1476
rwrist -0.426172
rhand -23.3332 -19.7163
rfingers 7.12502
rthumb 3.12132 -49.6732
lclavicle -3.8763e-015 1.94809e-014
lhumerus -11.3173 -26.8429 83.3983
lradius 67.4211
lwrist 34.7062
lhand -30.9848 5.31314
lfingers 7.12502
lthumb -4.2685 35.2501
rfemur 0.454357 -5.82315 15.8393
rtibia 6.36111e-015
rfoot -9.02969 -18.2902
rtoes 1.43665
lfemur -15.704 -8.91725 -13.5542
ltibia 23.1795
lfoot -19.3028 13.8888
ltoes -31.7162
300
root -9.6634 18.186 -16.667 -154.288 87.7781 -164.92
lowerback 8.87162 0.157275 -0.112973
upperback -1.8624 0.303786 1.46385
thorax -6.95114 0.189792 1.556
lowerneck -23.9513 -4.63963 -6.7259
upperneck 27.8633 -5.22552 4.55013
head 13.7828 -2.24089 1.99112
rclavicle -3.97569e-015 4.77083e-015
rhumerus -20.1669 3.38154 -76.5976
rradius 70.8748
rwrist 0.346636
rhand -22.5021 -18.8423
rfingers 7.12502
rthumb 3.92388 -48.7859
lclavicle -3.97569e-015 4.77083e-015
lhumerus -16.0114 -26.3866 85.2674
lradius 67.9452
lwrist 33.477
lhand -31.9132 4.58536
lfingers 7.12502
lthumb -5.16492 34.5024
rfemur 0.756096 -5.89554 15.8614
rtibia -1.74931e-014
rfoot -9.16795 -18.292
rtoes 1.26753
lfemur -15.438 -9.17073 -13.5407
ltibia 23.1774
lfoot -19.4407 14.0257
ltoes -31.9036
301
root -9.62457 18.1769 -16.6593 -155.217 87.698 -165.707
lowerback 8.72156 0.154093 -0.234956
upperback -1.86191 0.28547 1.47725
thorax -6.86482 0.185666 1.64118
lowerneck -23.9204 -4.7234 -6.83176
upperneck 27.8642 -5.35896 4.7079
head 13.7957 -2.2874 2.04702
rclavicle 5.01931e-015 -4.77083e-015
rhumerus -24.6345 2.42514 -76.674
rradius 70.2119
rwrist 0.83885
rhand -22.2601 -17.9724
rfingers 7.12502
rthumb 4.15761 -47.9116
lclavicle 5.01931e-015 -4.77083e-015
lhumerus -20.6035 -25.3726 87.081
lradius 68.2836
lwrist 32.3711
lhand -32.6722 3.91957
lfingers 7.12502
lthumb -5.89777 33.8175
rfemur 1.09318 -5.972 15.8608
rtibia 1.11319e-014
rfoot -9.33333 -18.2898
rtoes 1.18082
lfemur -15.1461 -9.39233 -13.5524
ltibia 23.188
lfoot -19.5665 14.1427
ltoes -32.3263
302
root -9.58835 18.1664 -16.6523 -156.486 87.6124 -166.787
lowerback 8.61135 0.151755 -0.333801
upperback -1.83155 0.269652 1.47104
thorax -6.76943 0.181012 1.69219
lowerneck -23.8619 -4.81386 -6.93613
upperneck 27.7957 -5.50774 4.87691
head 13.7753 -2.34005 2.10335
rclavicle -1.39149e-015 1.23246e-014
rhumerus -29.0024 1.41042 -76.7053
rradius 69.1915
rwrist 0.644684
rhand -22.8871 -17.8346
rfingers 7.12502
rthumb 3.55209 -47.7847
lclavicle -1.39149e-015 1.23246e-014
lhumerus -24.9984 -23.8731 88.7174
lradius 68.4708
lwrist 31.4464
lhand -33.2395 3.38636
lfingers 7.12502
lthumb -6.44547 33.2683
rfemur 1.47082 -6.05587 15.8371
rtibia 1.90833e-014
rfoot -9.52691 -18.2824
rtoes 1.28075
lfemur -14.824 -9.56812 -13.5907
ltibia 23.2119
lfoot -19.6643 14.2255
ltoes -32.9908
